<svg width="382" height="350" viewBox="0 0 382 350" fill="none" xmlns="http://www.w3.org/2000/svg">
<path d="M249.181 348.868C249.181 348.868 192.477 372.569 123.93 345.751L121.364 376.438L183.363 403.043C183.363 403.043 249.644 387.743 249.281 386.115C248.918 384.488 249.181 348.868 249.181 348.868Z" fill="#415797"/>
<path d="M126.998 295.446C106.866 291.377 91.6789 281.21 81.8131 272.496C75.7284 297.987 72.7862 324.317 78.9585 337.35C87.9729 356.38 109.645 335.935 126.998 321.274C126.948 304.986 126.998 295.446 126.998 295.446Z" fill="#DF9E80"/>
<path d="M120.45 296.209C120.45 296.209 99.892 291.339 81.8131 272.484L79.0587 281.436C79.0587 281.436 95.3222 302.169 119.123 306.651L120.45 296.209Z" fill="#BC4E35"/>
<path d="M193.028 341.419C193.128 341.419 193.229 341.419 193.329 341.431C193.429 341.431 193.529 341.431 193.629 341.419H193.028Z" fill="#D46949"/>
<path d="M255.002 295.446C275.134 291.377 290.321 281.21 300.187 272.496C306.272 297.987 309.214 324.317 303.042 337.35C294.027 356.38 272.355 335.935 255.002 321.274C255.052 304.986 255.002 295.446 255.002 295.446Z" fill="#DF9E80"/>
<path d="M260.774 296.209C260.774 296.209 281.332 291.339 299.411 272.484L302.165 281.436C302.165 281.436 285.902 302.169 262.101 306.651L260.774 296.209Z" fill="#BC4E35"/>
<path d="M300.187 272.484C294.227 247.507 283.185 216.682 276.85 206.629C249.656 163.472 199.889 193.332 199.889 193.332H191.388H190.599H182.098C182.098 193.332 132.331 163.472 105.138 206.629C98.8028 216.682 87.7602 247.507 81.8007 272.484C91.6664 281.198 100.305 292.14 120.437 296.209C120.437 296.209 111.736 363.604 113.877 364.681C114.916 365.207 145.64 377.965 190.988 377.088C236.335 377.965 267.047 365.207 268.098 364.681C270.239 363.604 261.538 296.209 261.538 296.209C281.682 292.153 290.309 281.198 300.187 272.484Z" fill="#D46949"/>
<path d="M188.972 341.419C188.872 341.419 188.771 341.419 188.671 341.431C188.571 341.431 188.471 341.431 188.371 341.419H188.972Z" fill="#D46949"/>
<g opacity="0.37">
<mask id="mask0_56_590" style="mask-type:luminance" maskUnits="userSpaceOnUse" x="81" y="183" width="220" height="195">
<path d="M300.187 272.484C294.227 247.507 283.185 216.682 276.85 206.629C249.656 163.472 199.889 193.332 199.889 193.332H191.388H190.599H182.098C182.098 193.332 132.331 163.472 105.138 206.629C98.8028 216.682 87.7602 247.507 81.8007 272.484C91.6664 281.198 100.305 292.14 120.437 296.209C120.437 296.209 111.736 363.604 113.877 364.681C114.916 365.207 145.64 377.965 190.988 377.088C236.335 377.965 267.047 365.207 268.098 364.681C270.239 363.604 261.538 296.209 261.538 296.209C281.682 292.153 290.309 281.198 300.187 272.484Z" fill="white"/>
</mask>
<g mask="url(#mask0_56_590)">
<path d="M110.647 175.867C110.647 175.867 147.33 197.627 184.177 199.204C250.633 202.034 283.16 164.562 283.16 164.562" stroke="white" stroke-width="3" stroke-miterlimit="10"/>
<path d="M89.4379 190.703C89.4379 190.703 125.495 222.529 187.006 223.243C274.509 224.244 302.954 176.706 302.954 176.706" stroke="white" stroke-width="3" stroke-miterlimit="10"/>
<path d="M81.663 214.066C81.663 214.066 120.35 248.22 186.343 248.971C280.218 250.048 310.741 199.042 310.741 199.042" stroke="white" stroke-width="3" stroke-miterlimit="10"/>
<path d="M81.663 240.921C81.663 240.921 120.35 275.076 186.343 275.827C280.218 276.903 310.741 225.897 310.741 225.897" stroke="white" stroke-width="3" stroke-miterlimit="10"/>
<path d="M81.663 267.088C81.663 267.088 120.35 301.242 186.343 301.993C280.218 303.07 310.741 252.064 310.741 252.064" stroke="white" stroke-width="3" stroke-miterlimit="10"/>
<path d="M80.2482 298.901C80.2482 298.901 123.843 327.109 189.836 327.872C283.711 328.949 309.327 283.877 309.327 283.877" stroke="white" stroke-width="3" stroke-miterlimit="10"/>
<path d="M80.2482 323.653C80.2482 323.653 123.843 351.861 189.836 352.624C283.711 353.701 309.327 308.629 309.327 308.629" stroke="white" stroke-width="3" stroke-miterlimit="10"/>
<path d="M80.2482 343.297C80.2482 343.297 123.843 371.504 189.836 372.268C283.711 373.345 309.327 328.273 309.327 328.273" stroke="white" stroke-width="3" stroke-miterlimit="10"/>
</g>
</g>
<path d="M346.06 263.182C360.771 239.694 360.796 225.985 356.364 223.143C339.612 212.413 339.675 216.344 339.675 216.344C339.675 216.344 331.637 201.145 329.096 207.918C326.892 213.803 327.067 230.655 324.726 235.713L321.221 253.278L346.06 263.182Z" fill="#DF9E80"/>
<path d="M324.726 235.713L312.006 254.655L272.48 314.388C270.94 329.588 277.789 339.19 287.191 343.51C300.8 349.757 314.698 341.494 322.26 328.574C339.763 298.651 348.527 257.798 348.527 257.798C348.527 257.798 335.982 257.059 324.726 235.713Z" fill="#DF9E80"/>
<path d="M337.171 215.142C342.818 212.676 372.452 211.799 373.679 216.044C374.919 220.275 352.308 221.828 352.308 221.828C352.308 221.828 380.928 219.837 380.565 225.233C380.177 228.363 355.35 228.601 355.35 228.601C355.35 228.601 381.354 229.59 381.229 232.996C381.091 236.401 356.039 234.824 356.039 234.824C356.039 234.824 381.893 236.902 380.878 240.195C379.814 243.65 361.272 244.088 354.887 243.926" fill="#DF9E80"/>
<path d="M349.553 237.365C349.553 237.365 336.42 233.209 332.752 242.073" stroke="black" stroke-width="0.8508" stroke-miterlimit="10" stroke-linecap="round" stroke-linejoin="round"/>
<path d="M280.806 305.274C280.743 305.274 280.681 305.261 280.618 305.236C280.355 305.136 280.23 304.835 280.343 304.585C287.229 287.232 300.5 270.994 300.625 270.831C300.8 270.618 301.126 270.581 301.339 270.756C301.552 270.931 301.589 271.244 301.414 271.47C301.276 271.632 288.118 287.758 281.282 304.961C281.194 305.161 281.006 305.274 280.806 305.274Z" fill="#683937"/>
<path d="M261.55 296.835C261.237 296.835 260.962 296.597 260.924 296.272C260.899 296.047 258.696 273.786 254.627 250.173C254.564 249.835 254.802 249.51 255.14 249.447C255.491 249.384 255.804 249.622 255.866 249.96C259.935 273.611 262.151 295.921 262.176 296.147C262.214 296.485 261.963 296.798 261.613 296.835C261.588 296.835 261.575 296.835 261.55 296.835Z" fill="#AA3B22"/>
<path d="M260.974 292.791C260.874 292.791 260.762 292.766 260.661 292.704C260.361 292.528 260.261 292.153 260.423 291.852C260.486 291.74 266.796 280.559 267.798 272.809C267.848 272.471 268.148 272.221 268.499 272.271C268.837 272.321 269.087 272.634 269.037 272.972C268.011 280.972 261.776 292.015 261.5 292.478C261.4 292.679 261.187 292.791 260.974 292.791Z" fill="#AA3B22"/>
<path d="M35.9399 263.182C21.2289 239.694 21.2038 225.985 25.6359 223.143C42.3877 212.413 42.3251 216.344 42.3251 216.344C42.3251 216.344 50.3629 201.145 52.9045 207.918C55.108 213.803 54.9327 230.655 57.274 235.713L60.7796 253.278L35.9399 263.182Z" fill="#DF9E80"/>
<path d="M57.2739 235.713L69.9942 254.655L109.52 314.388C111.06 329.588 104.211 339.19 94.8089 343.51C81.2121 349.757 67.3024 341.494 59.7404 328.574C42.2374 298.651 33.4734 257.798 33.4734 257.798C33.4734 257.798 46.0184 257.059 57.2739 235.713Z" fill="#DF9E80"/>
<path d="M44.8291 215.142C39.1826 212.676 9.54772 211.799 8.32076 216.044C7.08128 220.275 29.6924 221.828 29.6924 221.828C29.6924 221.828 1.07168 219.837 1.43476 225.233C1.82288 228.363 26.65 228.601 26.65 228.601C26.65 228.601 0.646003 229.59 0.771203 232.996C0.908923 236.401 25.9614 234.824 25.9614 234.824C25.9614 234.824 0.107641 236.902 1.12176 240.195C2.18596 243.65 20.7281 244.088 27.1133 243.926" fill="#DF9E80"/>
<path d="M32.4468 237.365C32.4468 237.365 45.5803 233.209 49.2486 242.073" stroke="black" stroke-width="0.8508" stroke-miterlimit="10" stroke-linecap="round" stroke-linejoin="round"/>
<path d="M116.105 145.005C116.105 145.005 124.882 171.648 141.095 165.851C141.095 165.851 151.312 187.774 174.549 179.485L172.859 166.84L133.183 131.384L116.105 145.005Z" fill="#965848"/>
<path d="M263.866 123.709C263.866 123.709 262.013 151.778 243.572 150.614C243.572 150.614 238.939 174.527 212.509 172.887L210.819 160.242L242.395 115.245L263.866 123.709Z" fill="#965848"/>
<path d="M137.978 25.5144C137.978 25.5144 126.359 14.1838 128.826 10.6782C131.292 7.18516 139.568 18.353 139.568 18.353C139.568 18.353 133.27 4.78133 140.106 2.52773C146.93 0.274126 146.441 22.3844 146.441 22.3844" fill="#965848"/>
<path d="M142.748 19.4297C142.748 19.4297 101.244 19.3546 104.362 40.8764C104.362 40.8764 86.8086 57.0523 94.834 66.6301C94.834 66.6301 76.2543 90.4431 93.8324 99.7079C93.8324 99.7079 88.5114 118 103.823 120.754L115.555 119.602C115.555 119.602 120.137 50.7172 149.571 40.0251L142.748 19.4297Z" fill="#965848"/>
<path d="M97.388 102.663C92.2924 103.314 86.9714 99.5326 85.2561 94.0739C83.8163 89.4916 84.7178 83.9452 87.7226 78.8496C90.164 74.718 93.5694 71.3126 96.9623 68.0824C95.51 68.0824 94.0327 67.6066 92.6805 66.6802C90.5897 65.2529 89.1373 62.9617 88.7743 60.5704C88.1733 56.5515 90.1139 52.0818 93.8448 48.9018C97.075 46.1474 101.056 44.5949 104.9 43.2928C102.158 36.8325 106.165 29.308 111.786 25.6396C117.72 21.7709 125.07 21.0448 131.555 20.4062L131.643 21.3453C125.258 21.9712 118.033 22.6849 112.287 26.4284C106.978 29.8839 103.047 37.3458 105.952 43.3679L106.177 43.8437L105.676 44.019C101.77 45.3336 97.6885 46.8485 94.4458 49.6154C90.9653 52.5827 89.1498 56.7268 89.7007 60.4327C90.0262 62.5736 91.3283 64.6269 93.2063 65.9164C94.7713 66.9932 96.5367 67.3813 98.1768 67.0182L99.8294 66.6426L98.6024 67.807C94.9341 71.3 91.128 74.9058 88.5238 79.3254C85.6568 84.1956 84.7929 89.4666 86.1451 93.7985C87.7226 98.844 92.6179 102.337 97.2628 101.736L97.388 102.663Z" fill="#965848"/>
<path d="M270.965 79.8012C269.163 80.0391 267.335 79.651 265.957 78.5868L266.533 77.8481C268.875 79.676 272.756 79.1752 275.009 76.7589C277.013 74.6054 277.776 71.1499 277.025 67.732C276.236 64.1888 274.02 61.1089 272.43 59.1057C267.66 53.1086 261.563 48.2508 254.677 44.933C253.487 44.7577 252.348 44.2695 251.434 43.4807L249.293 41.6403L251.922 42.6919C252.949 43.1051 253.976 43.5558 254.965 44.0316C256.042 44.1568 257.143 43.994 258.107 43.4932C260.035 42.5167 261.262 40.3132 261.087 38.1597C260.874 35.5556 258.871 33.1767 254.977 30.8856C247.403 26.4285 239.578 25.0137 232.704 24.3627C232.617 24.4127 232.516 24.4628 232.429 24.5129C231.678 24.8509 230.926 24.6757 230.363 24.0372L229.612 23.1733L230.751 23.2609C231.315 23.2985 231.878 23.3485 232.454 23.3986C233.305 22.6975 234.107 21.0824 233.956 19.8054C233.756 18.1027 232.366 16.5877 229.712 15.173C220.723 10.3778 209.943 9.23851 200.165 12.043L199.902 11.1415C209.93 8.26195 220.948 9.42631 230.15 14.3342C233.105 15.9117 234.645 17.6645 234.883 19.6927C235.033 20.9447 234.482 22.4721 233.656 23.5113C240.429 24.1999 248.041 25.7148 255.466 30.0718C259.647 32.5257 261.801 35.1424 262.039 38.0721C262.251 40.6011 260.812 43.1677 258.558 44.3195C257.995 44.6075 257.381 44.8078 256.755 44.908C263.09 48.2508 268.712 52.8832 273.181 58.5172C274.834 60.5955 277.125 63.7882 277.964 67.5191C278.79 71.225 277.927 75.0061 275.723 77.3849C274.421 78.7495 272.706 79.5634 270.965 79.8012Z" fill="#965848"/>
<path d="M202.781 14.0711C202.781 14.0711 233.618 3.60439 230.626 23.2358C230.626 23.2358 261.5 21.2326 256.743 43.2302C256.743 43.2302 284.287 58.78 270.114 78.3363C270.114 78.3363 277.538 96.7407 266.721 104.303L254.977 105.88C254.977 105.88 254.439 64.3014 232.754 53.3213C211.07 42.3413 189.085 37.4585 171.068 41.2896C153.052 45.1207 146.028 46.7734 146.028 46.7734L140.958 21.22C140.958 21.22 151.65 3.26636 188.371 0.511963C202.356 1.50104 204.396 10.1148 202.781 14.0711Z" fill="#965848"/>
<path d="M236.435 79.9262C229.775 80.8151 222.788 77.8354 218.131 73.829C213.474 69.8226 210.068 64.5642 207.176 59.3308C207.051 60.8457 206.525 62.3607 205.586 63.6502C203.545 66.4422 199.764 68.0823 195.745 67.9446C192.603 67.8319 189.235 66.7427 185.454 64.5892C180.07 61.5344 175.275 57.2776 171.532 52.2946C171.544 52.5074 171.544 52.7203 171.544 52.9331C171.519 56.1007 170.067 59.2557 167.763 61.1337C163.719 64.4515 157.321 64.8521 151.85 62.1478C147.593 60.0445 143.9 56.3886 140.194 50.642L140.983 50.1412C144.588 55.7376 148.169 59.2933 152.263 61.309C156.558 63.4249 162.83 63.9757 167.175 60.4075C169.265 58.6923 170.58 55.8252 170.605 52.9206C170.605 52.1193 170.53 51.3681 170.342 50.642C169.466 49.3649 168.664 48.0503 167.926 46.6982L166.736 44.4946L168.639 46.1097C169.891 47.1739 170.768 48.5887 171.206 50.2413C175.012 55.7501 180.12 60.4576 185.904 63.7504C189.61 65.8537 192.74 66.8804 195.77 66.9931C199.489 67.1183 202.957 65.6159 204.822 63.0743C206.037 61.4217 206.462 59.3058 206.137 57.4027C205.486 56.1883 204.86 54.9739 204.246 53.797L203.019 51.4307L204.985 53.2336C206.099 54.2602 206.8 55.6499 207.076 57.1523C210.131 62.8489 213.711 68.7584 218.744 73.0903C224.303 77.873 233.28 81.1407 240.792 77.6852L241.18 78.5365C239.64 79.2752 238.05 79.7134 236.435 79.9262Z" fill="#965848"/>
<path d="M169.541 167.178L170.655 180.512C184.778 184.155 199.351 184.606 212.822 181.664L213.073 162.596L169.541 167.178Z" fill="#D88765"/>
<path d="M191.639 195.298L168.126 192.544C164.633 192.131 161.841 195.336 162.655 198.754C164.483 206.466 170.905 217.909 192.978 218.26C215.377 218.623 222.025 206.716 223.978 198.841C224.804 195.499 222.025 192.356 218.594 192.682L191.639 195.298Z" fill="#BC4E35"/>
<path d="M170.655 180.512L172.345 200.757C172.345 200.757 174.749 211.599 191.301 211.599C209.855 211.599 212.572 200.757 212.572 200.757L212.823 181.664C199.351 184.593 184.778 184.155 170.655 180.512Z" fill="#DF9E80"/>
<path d="M244.36 49.0894C244.36 49.0894 254.664 70.8867 255.428 104.24C256.142 134.989 236.485 168.43 199.589 175.829C164.908 182.791 133.058 172.474 115.58 124.873C98.1017 77.2594 110.622 39.2237 154.354 24.1872C197.435 9.37599 232.103 21.3702 244.36 49.0894Z" fill="#DF9E80"/>
<path d="M248.592 101.448C248.592 101.448 241.443 99.2071 236.923 76.308C236.923 76.308 226.269 87.6637 208.478 58.3919C208.478 58.3919 201.454 78.3613 170.43 54.2353C170.43 54.2353 162.918 71.2625 143.049 56.1258C143.049 56.1258 143.762 82.7308 125.295 83.0688C125.295 83.0688 126.359 98.9442 116.418 99.2071C116.418 99.2071 120.5 114.419 109.946 120.015L101.783 118.425C101.783 118.425 87.6225 24.4001 171.118 15.3482C254.614 6.29619 257.268 68.2201 258.145 97.4793L248.592 101.448Z" fill="#965848"/>
<path d="M112.938 119.74L112.4 118.976C118.922 114.381 120.851 104.29 116.569 97.5796C116.481 97.4544 116.406 97.3417 116.331 97.2165L117.12 96.7157C117.207 96.8409 117.282 96.9536 117.357 97.0788C118.935 99.2323 122.253 99.4451 124.406 98.2432C126.635 96.9912 128.212 94.362 128.638 91.2069C129.026 88.3023 128.5 85.335 127.987 82.468L127.737 81.0282L128.788 82.0548C130.867 84.0831 134.31 83.72 136.501 82.3302C139.105 80.6776 140.645 77.8231 141.684 75.5194C144.989 68.2453 146.216 60.1949 145.252 52.2572L146.178 52.1445C147.168 60.245 145.903 68.4706 142.535 75.9075C141.433 78.3239 139.818 81.3412 136.989 83.119C134.81 84.4962 131.53 84.972 129.126 83.4946C129.564 86.0612 129.928 88.6779 129.564 91.3321C129.101 94.7751 127.348 97.6672 124.857 99.057C122.841 100.196 120.35 100.159 118.459 99.1822C121.464 106.156 119.198 115.333 112.938 119.74Z" fill="#965848"/>
<path d="M245.625 127.465L243.421 98.9067C243.421 98.9067 274.934 84.6965 279.905 111.427C284.875 138.169 256.768 143.315 245.625 127.465Z" fill="#DF9E80"/>
<path d="M255.04 127.79C255.115 127.778 255.19 127.753 255.253 127.715C255.503 127.552 255.578 127.214 255.428 126.964C255.353 126.839 247.866 114.669 256.092 107.445C258.984 104.904 262.014 103.752 265.106 103.99C270.439 104.428 274.221 108.96 274.271 108.998C274.458 109.236 274.809 109.261 275.034 109.073C275.272 108.885 275.297 108.535 275.109 108.309C274.947 108.109 271.003 103.376 265.206 102.901C261.813 102.625 258.495 103.877 255.378 106.619C246.451 114.457 254.439 127.415 254.514 127.54C254.627 127.728 254.827 127.828 255.04 127.79Z" fill="#683937"/>
<path d="M266.909 115.458C267.072 115.433 267.222 115.345 267.309 115.183C267.46 114.92 267.36 114.582 267.097 114.444C266.996 114.394 257.056 108.998 251.246 116.622C251.059 116.86 251.109 117.198 251.346 117.386C251.584 117.574 251.922 117.524 252.11 117.286C257.356 110.4 266.483 115.358 266.571 115.408C266.683 115.458 266.796 115.471 266.909 115.458Z" fill="#683937"/>
<path d="M133.245 142.514L121.239 114.982C121.239 114.982 93.7197 108.96 95.9607 136.054C98.2018 163.172 126.66 160.743 133.245 142.514Z" fill="#DF9E80"/>
<path d="M124.243 145.318C124.168 145.331 124.093 145.318 124.018 145.306C123.73 145.218 123.567 144.918 123.655 144.63C123.693 144.492 127.711 130.783 117.883 125.962C114.428 124.272 111.198 123.947 108.28 124.998C103.247 126.814 100.793 132.185 100.768 132.247C100.643 132.523 100.33 132.648 100.055 132.523C99.7794 132.398 99.6542 132.085 99.7794 131.809C99.892 131.571 102.446 125.975 107.917 123.984C111.122 122.82 114.641 123.158 118.372 124.986C129.039 130.207 124.757 144.792 124.707 144.943C124.632 145.143 124.456 145.281 124.243 145.318Z" fill="#683937"/>
<path d="M109.545 136.542C109.382 136.567 109.207 136.517 109.082 136.379C108.869 136.166 108.881 135.816 109.094 135.603C109.169 135.528 117.345 127.703 124.957 133.525C125.195 133.712 125.245 134.05 125.057 134.288C124.869 134.526 124.531 134.576 124.294 134.388C117.42 129.13 109.921 136.304 109.845 136.379C109.77 136.479 109.658 136.529 109.545 136.542Z" fill="#683937"/>
<path d="M186.08 133.412C194.13 131.309 196.809 137.744 196.834 137.819C196.947 138.094 196.809 138.407 196.534 138.52C196.271 138.633 195.945 138.495 195.82 138.22C195.72 137.957 193.141 131.897 184.903 134.914C184.615 135.002 184.302 134.877 184.202 134.589C184.102 134.301 184.239 133.988 184.527 133.888C185.066 133.7 185.579 133.537 186.08 133.412Z" fill="#683937"/>
<path d="M172.909 140.511C172.583 145.769 164.32 149.538 154.467 148.924C144.613 148.311 136.889 143.541 137.214 138.282C137.54 133.024 145.803 129.255 155.656 129.869C165.509 130.482 173.234 135.24 172.909 140.511Z" fill="#D88765"/>
<path d="M138.967 102.625C138.967 102.625 132.043 100.472 140.006 90.2679C147.956 80.0641 152.163 79.6134 155.105 81.5915C157.784 83.3944 157.083 88.2271 152.501 93.8611C147.005 100.634 142.786 103.927 138.967 102.625Z" fill="#965848"/>
<path d="M162.705 116.197C163.193 119.865 161.152 123.171 158.148 123.571C155.13 123.972 152.301 121.33 151.8 117.662C151.312 113.993 153.352 110.688 156.357 110.288C159.375 109.874 162.217 112.529 162.705 116.197Z" fill="#040504"/>
<path d="M220.898 108.397C221.386 112.065 219.345 115.371 216.341 115.771C213.323 116.172 210.494 113.53 209.993 109.862C209.505 106.193 211.545 102.888 214.55 102.487C217.567 102.087 220.397 104.729 220.898 108.397Z" fill="#040504"/>
<path d="M208.44 135.753C210.143 140.749 219.095 142.201 228.447 139.021C237.787 135.828 243.985 129.205 242.282 124.21C240.579 119.214 231.627 117.762 222.275 120.942C212.935 124.122 206.75 130.758 208.44 135.753Z" fill="#D88765"/>
<path d="M226.482 86.6246C226.482 86.6246 231.84 81.7418 220.322 75.87C208.803 69.9856 204.797 71.3628 202.969 74.3926C201.304 77.1595 203.983 81.241 210.519 84.4086C218.369 88.2147 223.577 89.4291 226.482 86.6246Z" fill="#965848"/>
<path d="M193.955 125.574C193.754 125.599 193.542 125.512 193.416 125.324C193.254 125.074 193.329 124.736 193.592 124.573C193.629 124.548 197.686 121.969 199.075 117.85C200.165 114.619 199.088 110.125 196.822 108.422C195.457 107.408 193.804 107.521 192.027 108.773C191.977 108.81 191.876 108.885 191.764 108.973C185.641 113.718 182.411 112.391 180.784 110.438C177.791 106.857 177.779 90.0427 177.553 86.4995C177.541 86.199 177.766 85.9486 178.067 85.9236C178.367 85.9111 178.63 86.1364 178.643 86.4369C179.231 95.9772 179.281 106.945 181.622 109.749C183.551 112.053 186.731 111.514 191.1 108.122C191.238 108.021 191.338 107.934 191.401 107.896C193.554 106.381 195.707 106.256 197.473 107.571C200.127 109.549 201.367 114.532 200.115 118.225C198.587 122.72 194.355 125.412 194.18 125.524C194.092 125.537 194.017 125.562 193.955 125.574Z" fill="#683937"/>
<path d="M102.634 306.688C102.459 306.688 102.271 306.588 102.183 306.413C91.2533 285.492 81.5127 272.91 81.4126 272.784C81.2373 272.571 81.2748 272.246 81.5002 272.083C81.7256 271.908 82.0386 271.946 82.2013 272.171C82.3015 272.296 92.0921 284.941 103.072 305.95C103.197 306.2 103.11 306.501 102.859 306.626C102.797 306.676 102.709 306.688 102.634 306.688Z" fill="#683937"/>
<path d="M224.153 402.629C231.102 420.783 218.932 457.48 218.932 457.48C218.932 457.48 83.5534 437.172 50.2753 424.339C34.7004 418.329 11.4132 385.352 54.2692 360.237C82.5268 343.673 224.153 402.629 224.153 402.629Z" fill="#415797"/>
<path d="M222.488 403.618C222.801 403.618 223.089 403.431 223.214 403.13C223.389 402.73 223.202 402.254 222.788 402.091C222.438 401.941 187.332 387.142 149.221 374.56C97.8638 357.607 65.7876 352.549 53.8686 359.536C53.493 359.761 53.3678 360.249 53.5806 360.625C53.806 361 54.2817 361.126 54.6698 360.913C82.2639 344.737 220.785 402.967 222.175 403.556C222.288 403.606 222.388 403.618 222.488 403.618Z" fill="#31467C"/>
<path d="M155.568 402.204C149.434 420.646 163.218 456.766 163.218 456.766C163.218 456.766 297.57 430.486 330.248 416.188C345.534 409.503 367.344 375.523 323.412 352.324C294.44 337.037 155.568 402.204 155.568 402.204Z" fill="#415797"/>
<path d="M159.199 403.13C159.312 403.13 159.425 403.105 159.537 403.055C160.902 402.404 296.731 338.114 325.002 353.038C325.39 353.238 325.866 353.1 326.078 352.712C326.279 352.324 326.128 351.848 325.74 351.635C313.521 345.175 281.682 351.648 231.139 370.866C193.617 385.126 159.199 401.465 158.861 401.628C158.461 401.816 158.298 402.291 158.486 402.692C158.611 402.955 158.899 403.13 159.199 403.13Z" fill="#31467C"/>
<path d="M120.45 296.835C120.425 296.835 120.412 296.835 120.387 296.835C120.049 296.798 119.786 296.497 119.824 296.147C119.849 295.921 122.052 273.611 126.121 249.96C126.184 249.622 126.497 249.384 126.848 249.447C127.186 249.51 127.411 249.835 127.361 250.173C123.304 273.786 121.088 296.047 121.076 296.272C121.038 296.597 120.763 296.835 120.45 296.835Z" fill="#AA3B22"/>
<path d="M121.026 292.791C120.813 292.791 120.6 292.679 120.488 292.478C120.225 292.015 113.99 280.972 112.95 272.972C112.9 272.634 113.151 272.309 113.489 272.271C113.827 272.221 114.14 272.471 114.19 272.809C115.192 280.559 121.502 291.74 121.564 291.852C121.74 292.153 121.627 292.528 121.326 292.704C121.239 292.766 121.139 292.791 121.026 292.791Z" fill="#AA3B22"/>
</svg>
