<svg width="64" height="64" viewBox="0 0 64 64" fill="none" xmlns="http://www.w3.org/2000/svg">
<g id="ep:close-bold">
<path id="Vector" d="M51.8 12.2C51.0499 11.4501 50.0327 11.0289 48.972 11.0289C47.9113 11.0289 46.8941 11.4501 46.144 12.2L32 26.344L17.856 12.2C17.1016 11.4714 16.0912 11.0682 15.0424 11.0773C13.9936 11.0864 12.9904 11.5071 12.2487 12.2487C11.5071 12.9904 11.0864 13.9936 11.0773 15.0424C11.0682 16.0912 11.4714 17.1016 12.2 17.856L26.344 32L12.2 46.144C11.4714 46.8984 11.0682 47.9088 11.0773 48.9576C11.0864 50.0064 11.5071 51.0096 12.2487 51.7513C12.9904 52.4929 13.9936 52.9136 15.0424 52.9227C16.0912 52.9318 17.1016 52.5286 17.856 51.8L32 37.656L46.144 51.8C46.8984 52.5286 47.9088 52.9318 48.9576 52.9227C50.0064 52.9136 51.0096 52.4929 51.7513 51.7513C52.4929 51.0096 52.9136 50.0064 52.9227 48.9576C52.9318 47.9088 52.5286 46.8984 51.8 46.144L37.656 32L51.8 17.856C52.5499 17.1059 52.9711 16.0887 52.9711 15.028C52.9711 13.9673 52.5499 12.9501 51.8 12.2Z" fill="#1F124C"/>
</g>
</svg>
